# xmcd
#
# Track frame offsets:
#	150
#	16364
#	37505
#	55923
#	75473
#	95748
#	116859
#	137195
#	157475
#	176487
#	196039
#	217354
#	237630
#	257821
#
# Disc length: 3520 seconds
#
# Revision: 0
# Processed by: cddbd v1.4PL0 Copyright (c) Steve Scherf et al.
# Submitted via: EasyCDDAExtractor 4.6.9.1
#
DISCID=cb0dbe0e
DTITLE=Dèzil - Voyage
DYEAR=1900
DGENRE=Créole
TTITLE0=FANM'KREOL
TTITLE1=ENCÔ
TTITLE2=NI DE LÈ
TTITLE3=DE TI NOT
TTITLE4=CHOFE MWEN
TTITLE5=AFWIK
TTITLE6=FOW BAYE
TTITLE7=MANEJ
TTITLE8=PLAIZI ETERNEL
TTITLE9=NIAJ
TTITLE10=FWAZ BANAL
TTITLE11=7 HEURES
TTITLE12=EB TU LA
TTITLE13=MAYE
EXTD=
EXTT0=
EXTT1=
EXTT2=
EXTT3=
EXTT4=
EXTT5=
EXTT6=
EXTT7=
EXTT8=
EXTT9=
EXTT10=
EXTT11=
EXTT12=
EXTT13=
PLAYORDER=
